<svg data-noselect="" viewBox="0 0 400 300" width="400" height="300" preserveAspectRatio="none" version="1.1" xmlns="http://www.w3.org/2000/svg"><defs></defs> <g id="shape_F6cbynRQg1" transform="translate(95.78947368421055,47.36842105263158) rotate(0,66,65) scale(1.5789473684210527,1.5789473684210527)" filter="" style="cursor: move; opacity: 1;"><g><svg version="1.1" id="图层_1" xmlns="http://www.w3.org/2000/svg" xmlns:xlink="http://www.w3.org/1999/xlink" x="0px" y="0px" style="enable-background:new 0 0 283.46 226.77;" xml:space="preserve" viewBox="67.54500579833984 44.89900207519531 132.17098999023438 130.6949920654297" width="132" height="130" preserveAspectRatio="none" data-parent="shape_F6cbynRQg1">
<g>
	<g>
		<path style="" d="M149.329,74.252c-1.52,0-2.752-1.218-2.752-2.721c0-3.15-1.121-5.397-3.426-6.867
			c-2.222-1.418-5.618-2.167-9.82-2.167c-4.202,0-7.598,0.749-9.82,2.167c-2.305,1.47-3.426,3.717-3.426,6.867
			c0,1.503-1.232,2.721-2.752,2.721c-1.52,0-2.752-1.218-2.752-2.721c0-2.555,0.531-4.842,1.577-6.796
			c1.003-1.872,2.473-3.435,4.368-4.645c3.158-2.014,7.466-3.036,12.804-3.036c5.338,0,9.646,1.022,12.804,3.036
			c1.896,1.21,3.366,2.772,4.369,4.645c1.047,1.954,1.577,4.241,1.577,6.796C152.081,73.033,150.849,74.252,149.329,74.252z" fill="#DAE000"></path>
		<ellipse style="" cx="133.331" cy="53.679" rx="8.88" ry="8.78" fill="#8FC31F"></ellipse>
	</g>
	<g>
		<path style="" d="M92.975,95.52c-0.703-0.042-1.39-0.35-1.894-0.912c-1.713-1.913-2.849-3.973-3.375-6.122
			c-0.504-2.059-0.451-4.193,0.157-6.341c1.014-3.578,3.554-7.167,7.551-10.666c3.997-3.499,7.907-5.558,11.622-6.12
			c2.23-0.337,4.378-0.131,6.384,0.614c2.094,0.777,4.024,2.141,5.737,4.055c1.008,1.125,0.902,2.845-0.236,3.841
			c-1.138,0.996-2.877,0.892-3.885-0.234c-2.112-2.359-4.457-3.306-7.169-2.896c-2.614,0.395-5.659,2.06-8.805,4.815
			c-3.146,2.755-5.186,5.542-5.9,8.06c-0.74,2.612-0.073,5.028,2.039,7.387c1.008,1.125,0.902,2.845-0.236,3.841
			C94.398,95.339,93.678,95.562,92.975,95.52z" fill="#F39700"></path>
		<path style="" d="M99.801,63.131c3.251,3.631,2.91,9.18-0.762,12.395c-3.672,3.215-9.284,2.877-12.535-0.754
			c-3.251-3.631-2.91-9.18,0.762-12.394C90.938,59.163,96.55,59.5,99.801,63.131z" fill="#E60012"></path>
	</g>
	<g>
		<path style="" d="M94.477,129.045c-2.584,0-4.897-0.525-6.873-1.559c-1.894-0.992-3.474-2.445-4.697-4.32
			c-2.038-3.123-3.07-7.383-3.07-12.661s1.033-9.538,3.07-12.661c1.223-1.875,2.803-3.328,4.697-4.32
			c1.976-1.035,4.289-1.559,6.873-1.559c1.52,0,2.752,1.218,2.752,2.721c0,1.503-1.232,2.721-2.752,2.721
			c-3.186,0-5.458,1.108-6.945,3.387c-1.434,2.198-2.192,5.555-2.192,9.711c0,4.155,0.758,7.513,2.192,9.711
			c1.487,2.279,3.759,3.387,6.945,3.387c1.52,0,2.752,1.218,2.752,2.721C97.229,127.826,95.996,129.045,94.477,129.045z" fill="#6A3906"></path>
		<ellipse style="" cx="76.424" cy="110.504" rx="8.879" ry="8.781" fill="#40220F"></ellipse>
	</g>
	<g>
		<path style="" d="M110.22,155.153c-0.926,0-1.864-0.101-2.813-0.303c-3.674-0.784-7.45-3.074-11.225-6.806
			c-3.775-3.732-6.09-7.467-6.883-11.1c-0.476-2.181-0.398-4.314,0.232-6.339c0.657-2.113,1.917-4.101,3.745-5.908
			c1.075-1.062,2.817-1.063,3.892,0c1.075,1.063,1.075,2.786,0,3.848c-2.253,2.228-3.067,4.6-2.489,7.251
			c0.558,2.556,2.423,5.46,5.395,8.399c2.971,2.938,5.908,4.783,8.494,5.334c2.681,0.572,5.08-0.233,7.333-2.461
			c1.075-1.063,2.817-1.063,3.892,0c1.075,1.063,1.075,2.786,0,3.848c-1.827,1.807-3.838,3.053-5.975,3.703
			C112.651,154.975,111.447,155.153,110.22,155.153z" fill="#595757"></path>
		<path d="M87.491,144.221c3.468-3.429,9.09-3.429,12.558,0c3.468,3.429,3.468,8.988,0,12.417c-3.468,3.429-9.09,3.429-12.558,0
			C84.024,153.209,84.024,147.65,87.491,144.221z"></path>
	</g>
	<g>
		<path style="" d="M133.331,163.44c-5.338,0-9.646-1.022-12.804-3.036c-1.896-1.209-3.366-2.772-4.368-4.645
			c-1.047-1.954-1.577-4.24-1.577-6.796c0-1.503,1.232-2.721,2.752-2.721c1.52,0,2.752,1.218,2.752,2.721
			c0,3.151,1.121,5.397,3.426,6.867c2.222,1.418,5.618,2.167,9.82,2.167c4.202,0,7.598-0.749,9.82-2.167
			c2.305-1.47,3.426-3.717,3.426-6.867c0-1.503,1.232-2.721,2.752-2.721c1.52,0,2.752,1.218,2.752,2.721
			c0,2.556-0.53,4.842-1.577,6.796c-1.003,1.873-2.473,3.435-4.369,4.645C142.977,162.419,138.669,163.44,133.331,163.44z" fill="#036EB8"></path>
		<ellipse style="" cx="133.331" cy="166.814" rx="8.88" ry="8.78" fill="#172A88"></ellipse>
	</g>
	<g>
		<path style="" d="M157.188,155.153c-1.227,0-2.43-0.178-3.598-0.533c-2.137-0.65-4.148-1.896-5.975-3.703
			c-1.075-1.063-1.075-2.785,0-3.848c1.074-1.063,2.817-1.063,3.892,0c1.787,1.767,3.665,2.638,5.703,2.639
			c0.532,0,1.075-0.059,1.63-0.178c2.585-0.551,5.522-2.396,8.494-5.334c2.972-2.938,4.837-5.843,5.395-8.399
			c0.578-2.651-0.236-5.023-2.489-7.251c-1.075-1.063-1.075-2.785,0-3.848c1.075-1.062,2.817-1.062,3.892,0
			c1.827,1.807,3.087,3.795,3.745,5.908c0.63,2.025,0.708,4.158,0.232,6.339c-0.793,3.633-3.108,7.367-6.883,11.1
			c-3.774,3.732-7.551,6.022-11.225,6.806C159.053,155.052,158.113,155.152,157.188,155.153z" fill="#2EA7E0"></path>
		<path style="" d="M167.359,156.638c-3.468-3.429-3.468-8.988,0-12.417c3.468-3.429,9.09-3.429,12.558,0
			c3.468,3.429,3.468,8.988,0,12.417C176.45,160.067,170.827,160.067,167.359,156.638z" fill="#036EB8"></path>
	</g>
	<g>
		<path style="" d="M172.783,129.045c-1.52,0-2.752-1.218-2.752-2.721s1.232-2.721,2.752-2.721
			c3.186,0,5.458-1.108,6.945-3.387c1.434-2.198,2.191-5.556,2.191-9.711c0-4.155-0.758-7.513-2.191-9.711
			c-1.487-2.279-3.759-3.387-6.945-3.387c-1.52,0-2.752-1.218-2.752-2.721s1.232-2.721,2.752-2.721c2.584,0,4.897,0.525,6.873,1.56
			c1.894,0.992,3.474,2.445,4.697,4.32c2.038,3.123,3.071,7.383,3.071,12.661s-1.033,9.538-3.071,12.661
			c-1.223,1.875-2.803,3.328-4.697,4.32C177.68,128.52,175.368,129.045,172.783,129.045z" fill="#E61673"></path>
		<ellipse style="" cx="190.836" cy="110.504" rx="8.88" ry="8.781" fill="#A40B5D"></ellipse>
	</g>
	<g>
		<path style="" d="M172.746,95.517c-0.682,0-1.365-0.249-1.898-0.751c-1.1-1.037-1.143-2.759-0.094-3.847
			c2.198-2.281,2.954-4.672,2.311-7.309c-0.62-2.542-2.556-5.401-5.598-8.268c-3.043-2.866-6.024-4.64-8.622-5.13
			c-2.695-0.508-5.073,0.354-7.271,2.635c-1.048,1.088-2.79,1.13-3.891,0.093c-1.1-1.037-1.143-2.759-0.094-3.847
			c1.783-1.85,3.762-3.144,5.883-3.845c2.032-0.672,4.187-0.8,6.403-0.383c3.692,0.696,7.523,2.895,11.388,6.536
			c3.865,3.641,6.271,7.319,7.152,10.932c0.529,2.169,0.503,4.303-0.077,6.343c-0.606,2.129-1.817,4.146-3.599,5.996
			C174.198,95.234,173.473,95.517,172.746,95.517z" fill="#22AC38"></path>
		<path style="" d="M180.046,75.016c-3.383,3.511-9.003,3.645-12.554,0.3c-3.551-3.345-3.686-8.903-0.304-12.414
			c3.383-3.511,9.004-3.645,12.554-0.3C183.293,65.947,183.429,71.505,180.046,75.016z" fill="#006934"></path>
	</g>
</g>
</svg></g> <!----></g>  <!----></svg>